<?xml version="1.0" encoding="UTF-8"?>
<!DOCTYPE svg PUBLIC "-//W3C//DTD SVG 1.1//EN" "http://www.w3.org/Graphics/SVG/1.1/DTD/svg11.dtd">
<svg xmlns="http://www.w3.org/2000/svg" version="1.1" width="1280px" height="1280px" style="shape-rendering:geometricPrecision; text-rendering:geometricPrecision; image-rendering:optimizeQuality; fill-rule:evenodd; clip-rule:evenodd" xmlns:xlink="http://www.w3.org/1999/xlink">
<g><path style="opacity:0.005" fill="#fefffe" d="M 96.5,79.5 C 99.0009,79.5109 99.1676,80.1776 97,81.5C 96.5357,80.9056 96.369,80.2389 96.5,79.5 Z"/></g>
<g><path style="opacity:0.006" fill="#fefffe" d="M 95.5,83.5 C 95.8966,82.475 96.5632,82.3083 97.5,83C 96.9056,83.4643 96.2389,83.631 95.5,83.5 Z"/></g>
<g><path style="opacity:0.004" fill="#fefffe" d="M 87.5,96.5 C 88.8333,97.1667 88.8333,97.1667 87.5,96.5 Z"/></g>
<g><path style="opacity:0.934" fill="#fefffe" d="M 621.5,107.5 C 744.814,104.819 853.148,143.152 946.5,222.5C 921.507,223.666 896.507,223.833 871.5,223C 760.919,153.584 642.586,136.584 516.5,172C 477.866,183.855 441.866,200.855 408.5,223C 383.167,223.667 357.833,223.667 332.5,223C 415.48,151.869 511.813,113.369 621.5,107.5 Z"/></g>
<g><path style="opacity:0.004" fill="#fefffe" d="M 75.5,117.5 C 75.8966,116.475 76.5632,116.308 77.5,117C 76.9056,117.464 76.2389,117.631 75.5,117.5 Z"/></g>
<g><path style="opacity:0.004" fill="#fefffe" d="M 74.5,118.5 C 75.8333,119.167 75.8333,119.167 74.5,118.5 Z"/></g>
<g><path style="opacity:0.011" fill="#fefffe" d="M 65.5,133.5 C 67.337,133.639 67.6704,134.306 66.5,135.5C 65.7025,135.043 65.3691,134.376 65.5,133.5 Z"/></g>
<g><path style="opacity:0.006" fill="#fefffe" d="M 55.5,150.5 C 56.525,150.897 56.6917,151.563 56,152.5C 55.5357,151.906 55.369,151.239 55.5,150.5 Z"/></g>
<g><path style="opacity:0.006" fill="#fefffe" d="M 54.5,153.5 C 55.525,153.897 55.6917,154.563 55,155.5C 54.5357,154.906 54.369,154.239 54.5,153.5 Z"/></g>
<g><path style="opacity:0.004" fill="#fefffe" d="M 48.5,162.5 C 49.8333,163.167 49.8333,163.167 48.5,162.5 Z"/></g>
<g><path style="opacity:0.004" fill="#fefffe" d="M 46.5,167.5 C 47.8333,168.167 47.8333,168.167 46.5,167.5 Z"/></g>
<g><path style="opacity:0.006" fill="#fefffe" d="M 14.5,222.5 C 15.525,222.897 15.6917,223.563 15,224.5C 14.5357,223.906 14.369,223.239 14.5,222.5 Z"/></g>
<g><path style="opacity:0.008" fill="#fefffe" d="M 6.5,236.5 C 9.00092,236.511 9.16758,237.178 7,238.5C 6.53566,237.906 6.36899,237.239 6.5,236.5 Z"/></g>
<g><path style="opacity:0.014" fill="#fefffe" d="M 4.5,239.5 C 6.33702,239.639 6.67036,240.306 5.5,241.5C 4.70245,241.043 4.36912,240.376 4.5,239.5 Z"/></g>
<g><path style="opacity:0.169" fill="#fefffe" d="M 103.5,245.5 C 107.884,245.174 112.217,245.508 116.5,246.5C 114.333,246.833 112.167,247.167 110,247.5C 107.39,247.467 105.223,246.8 103.5,245.5 Z"/></g>
<g><path style="opacity:0.018" fill="#fefffe" d="M 927.5,245.5 C 929.337,245.639 929.67,246.306 928.5,247.5C 927.702,247.043 927.369,246.376 927.5,245.5 Z"/></g>
<g><path style="opacity:0.981" fill="#fefffe" d="M 133.5,272.5 C 248.207,272.169 362.874,272.502 477.5,273.5C 526.002,357.171 574.502,440.838 623,524.5C 624.318,527.406 624.652,530.406 624,533.5C 602.647,570.213 581.314,606.879 560,643.5C 559.439,644.022 558.772,644.355 558,644.5C 554.429,639.702 551.096,634.702 548,629.5C 537.099,609.745 525.932,590.078 514.5,570.5C 488.167,569.167 461.833,569.167 435.5,570.5C 463.415,618.568 491.082,666.734 518.5,715C 497.566,753.036 475.733,790.536 453,827.5C 449.979,825.132 447.645,822.132 446,818.5C 343.288,640.394 240.621,462.394 138,284.5C 135.636,280.781 134.136,276.781 133.5,272.5 Z M 330.5,387.5 C 356.502,387.333 382.502,387.5 408.5,388C 421.673,409.343 434.34,431.01 446.5,453C 420.16,453.833 393.827,453.667 367.5,452.5C 354.646,431.016 342.312,409.349 330.5,387.5 Z"/></g>
<g><path style="opacity:0.973" fill="#fefffe" d="M 505.5,272.5 C 594.5,272.5 683.5,272.5 772.5,272.5C 772.54,275.425 771.707,278.091 770,280.5C 729.313,350.213 688.98,420.213 649,490.5C 645.98,495.887 642.48,500.887 638.5,505.5C 594.177,428.69 549.677,352.023 505,275.5C 504.53,274.423 504.697,273.423 505.5,272.5 Z"/></g>
<g><path style="opacity:0.983" fill="#fefffe" d="M 801.5,272.5 C 917.974,272.002 1034.31,272.502 1150.5,274C 1094,372.679 1037,471.012 979.5,569C 907.93,569.168 836.43,569.668 765,570.5C 732.021,629.128 698.021,687.128 663,744.5C 620.961,818.233 578.628,891.9 536,965.5C 535.311,966.357 534.478,967.023 533.5,967.5C 530.433,963.713 527.6,959.713 525,955.5C 506.076,921.581 486.742,887.915 467,854.5C 466.333,853.5 466.333,852.5 467,851.5C 579.042,658.741 690.542,465.741 801.5,272.5 Z M 870.5,387.5 C 898.169,387.333 925.835,387.5 953.5,388C 940.455,409.253 927.789,430.753 915.5,452.5C 888.175,453.5 860.841,453.833 833.5,453.5C 845.313,431.206 857.647,409.206 870.5,387.5 Z"/></g>
<g><path style="opacity:0.004" fill="#fefffe" d="M 3.5,274.5 C 4.52502,274.897 4.69169,275.563 4,276.5C 3.53566,275.906 3.36899,275.239 3.5,274.5 Z"/></g>
<g><path style="opacity:0.01" fill="#fefffe" d="M 1.5,290.5 C 1.63945,288.663 2.30612,288.33 3.5,289.5C 3.04311,290.298 2.37644,290.631 1.5,290.5 Z"/></g>
<g><path style="opacity:0.004" fill="#fefffe" d="M 1.5,290.5 C 1.63101,291.239 1.46434,291.906 1,292.5C 0.308314,291.563 0.474981,290.897 1.5,290.5 Z"/></g>
<g><path style="opacity:0.944" fill="#fefffe" d="M 185.5,465.5 C 186.458,465.953 187.292,466.619 188,467.5C 198.401,485.965 209.067,504.298 220,522.5C 206.707,667.645 252.541,790.145 357.5,890C 392.415,920.722 431.248,945.556 474,964.5C 485.343,983.856 496.676,1003.19 508,1022.5C 508.667,1023.5 508.667,1024.5 508,1025.5C 357.112,976.612 253.779,877.945 198,729.5C 168.73,642.676 164.563,554.676 185.5,465.5 Z"/></g>
<g><path style="opacity:0.941" fill="#fefffe" d="M 1093.5,469.5 C 1094.93,469.881 1095.76,470.881 1096,472.5C 1127.26,628.621 1091.59,766.954 989,887.5C 930.676,951.686 860.01,997.019 777,1023.5C 776.5,1023.17 776,1022.83 775.5,1022.5C 786.667,1002.83 797.833,983.167 809,963.5C 940.047,901.585 1021.71,799.585 1054,657.5C 1061.7,615.305 1063.53,572.805 1059.5,530C 1070.71,509.746 1082.04,489.579 1093.5,469.5 Z"/></g>
<g><path style="opacity:0.983" fill="#fefffe" d="M 776.5,593.5 C 839.167,593.5 901.833,593.5 964.5,593.5C 964.509,595.308 964.009,596.975 963,598.5C 856.05,783.319 749.217,968.319 642.5,1153.5C 641.5,1154.83 640.5,1154.83 639.5,1153.5C 609.28,1100.73 578.78,1048.07 548,995.5C 547.433,992.832 546.933,990.166 546.5,987.5C 547.822,987.67 548.989,987.337 550,986.5C 624.995,855.171 700.495,724.171 776.5,593.5 Z"/></g>
<g><path style="opacity:0.007" fill="#fefffe" d="M 3.5,1272.5 C 6.00092,1272.51 6.16758,1273.18 4,1274.5C 3.53566,1273.91 3.36899,1273.24 3.5,1272.5 Z"/></g>
<g><path style="opacity:0.008" fill="#fefffe" d="M 26.5,1272.5 C 31.1001,1272.35 31.4334,1273.01 27.5,1274.5C 25.279,1274.56 24.9456,1273.89 26.5,1272.5 Z"/></g>
<g><path style="opacity:0.01" fill="#fefffe" d="M 33.5,1272.5 C 35.337,1272.64 35.6704,1273.31 34.5,1274.5C 33.7025,1274.04 33.3691,1273.38 33.5,1272.5 Z"/></g>
<g><path style="opacity:0.007" fill="#fefffe" d="M 39.5,1272.5 C 42.0009,1272.51 42.1676,1273.18 40,1274.5C 39.5357,1273.91 39.369,1273.24 39.5,1272.5 Z"/></g>
<g><path style="opacity:0.006" fill="#fefffe" d="M 61.5,1272.5 C 63.3786,1272.39 63.7119,1272.89 62.5,1274C 59.1247,1274.63 58.7913,1274.13 61.5,1272.5 Z"/></g>
<g><path style="opacity:0.006" fill="#fefffe" d="M 73.5,1273.5 C 73.8966,1272.47 74.5632,1272.31 75.5,1273C 74.9056,1273.46 74.2389,1273.63 73.5,1273.5 Z"/></g>
<g><path style="opacity:0.008" fill="#fefffe" d="M 78.5,1272.5 C 79.8333,1273.17 79.8333,1273.17 78.5,1272.5 Z"/></g>
<g><path style="opacity:0.006" fill="#fefffe" d="M 80.5,1272.5 C 82.337,1272.64 82.6704,1273.31 81.5,1274.5C 80.7025,1274.04 80.3691,1273.38 80.5,1272.5 Z"/></g>
<g><path style="opacity:0.008" fill="#fefffe" d="M 119.5,1272.5 C 120.833,1273.17 120.833,1273.17 119.5,1272.5 Z"/></g>
<g><path style="opacity:0.004" fill="#fefffe" d="M 128.5,1272.5 C 129.833,1273.17 129.833,1273.17 128.5,1272.5 Z"/></g>
<g><path style="opacity:0.007" fill="#fefffe" d="M 133.5,1272.5 C 136.001,1272.51 136.168,1273.18 134,1274.5C 133.536,1273.91 133.369,1273.24 133.5,1272.5 Z"/></g>
<g><path style="opacity:0.009" fill="#fefffe" d="M 138.5,1272.5 C 141.001,1272.51 141.168,1273.18 139,1274.5C 138.536,1273.91 138.369,1273.24 138.5,1272.5 Z"/></g>
<g><path style="opacity:0.006" fill="#fefffe" d="M 162.5,1273.5 C 162.897,1272.47 163.563,1272.31 164.5,1273C 163.906,1273.46 163.239,1273.63 162.5,1273.5 Z"/></g>
<g><path style="opacity:0.009" fill="#fefffe" d="M 172.5,1272.5 C 175.001,1272.51 175.168,1273.18 173,1274.5C 172.536,1273.91 172.369,1273.24 172.5,1272.5 Z"/></g>
<g><path style="opacity:0.005" fill="#fefffe" d="M 191.5,1273.5 C 192.077,1272.23 192.743,1272.23 193.5,1273.5C 193.03,1274.46 192.363,1274.46 191.5,1273.5 Z"/></g>
<g><path style="opacity:0.009" fill="#fefffe" d="M 208.5,1272.5 C 211.001,1272.51 211.168,1273.18 209,1274.5C 208.536,1273.91 208.369,1273.24 208.5,1272.5 Z"/></g>
<g><path style="opacity:0.004" fill="#fefffe" d="M 215.5,1273.5 C 215.897,1272.47 216.563,1272.31 217.5,1273C 216.906,1273.46 216.239,1273.63 215.5,1273.5 Z"/></g>
<g><path style="opacity:0.006" fill="#fefffe" d="M 235.5,1273.5 C 235.897,1272.47 236.563,1272.31 237.5,1273C 236.906,1273.46 236.239,1273.63 235.5,1273.5 Z"/></g>
<g><path style="opacity:0.006" fill="#fefffe" d="M 249.5,1273.5 C 249.897,1272.47 250.563,1272.31 251.5,1273C 250.906,1273.46 250.239,1273.63 249.5,1273.5 Z"/></g>
<g><path style="opacity:0.004" fill="#fefffe" d="M 252.5,1272.5 C 253.833,1273.17 253.833,1273.17 252.5,1272.5 Z"/></g>
<g><path style="opacity:0.006" fill="#fefffe" d="M 261.5,1273.5 C 261.897,1272.47 262.563,1272.31 263.5,1273C 262.906,1273.46 262.239,1273.63 261.5,1273.5 Z"/></g>
<g><path style="opacity:0.008" fill="#fefffe" d="M 283.5,1272.5 C 286.001,1272.51 286.168,1273.18 284,1274.5C 283.536,1273.91 283.369,1273.24 283.5,1272.5 Z"/></g>
<g><path style="opacity:0.006" fill="#fefffe" d="M 290.5,1273.5 C 290.897,1272.47 291.563,1272.31 292.5,1273C 291.906,1273.46 291.239,1273.63 290.5,1273.5 Z"/></g>
<g><path style="opacity:0.008" fill="#fefffe" d="M 294.5,1272.5 C 297.001,1272.51 297.168,1273.18 295,1274.5C 294.536,1273.91 294.369,1273.24 294.5,1272.5 Z"/></g>
<g><path style="opacity:0.004" fill="#fefffe" d="M 310.5,1272.5 C 311.525,1272.9 311.692,1273.56 311,1274.5C 310.536,1273.91 310.369,1273.24 310.5,1272.5 Z"/></g>
<g><path style="opacity:0.008" fill="#fefffe" d="M 312.5,1272.5 C 314.337,1272.64 314.67,1273.31 313.5,1274.5C 312.702,1274.04 312.369,1273.38 312.5,1272.5 Z"/></g>
<g><path style="opacity:0.007" fill="#fefffe" d="M 317.5,1272.5 C 320.001,1272.51 320.168,1273.18 318,1274.5C 317.536,1273.91 317.369,1273.24 317.5,1272.5 Z"/></g>
<g><path style="opacity:0.008" fill="#fefffe" d="M 324.5,1273.5 C 324.897,1272.47 325.563,1272.31 326.5,1273C 325.906,1273.46 325.239,1273.63 324.5,1273.5 Z"/></g>
<g><path style="opacity:0.007" fill="#fefffe" d="M 358.5,1272.5 C 361.001,1272.51 361.168,1273.18 359,1274.5C 358.536,1273.91 358.369,1273.24 358.5,1272.5 Z"/></g>
<g><path style="opacity:0.004" fill="#fefffe" d="M 362.5,1272.5 C 363.833,1273.17 363.833,1273.17 362.5,1272.5 Z"/></g>
<g><path style="opacity:0.008" fill="#fefffe" d="M 365.5,1273.5 C 365.897,1272.47 366.563,1272.31 367.5,1273C 366.906,1273.46 366.239,1273.63 365.5,1273.5 Z"/></g>
<g><path style="opacity:0.004" fill="#fefffe" d="M 375.5,1273.5 C 375.897,1272.47 376.563,1272.31 377.5,1273C 376.906,1273.46 376.239,1273.63 375.5,1273.5 Z"/></g>
<g><path style="opacity:0.004" fill="#fefffe" d="M 387.5,1273.5 C 387.897,1272.47 388.563,1272.31 389.5,1273C 388.906,1273.46 388.239,1273.63 387.5,1273.5 Z"/></g>
<g><path style="opacity:0.008" fill="#fefffe" d="M 411.5,1273.5 C 411.897,1272.47 412.563,1272.31 413.5,1273C 412.906,1273.46 412.239,1273.63 411.5,1273.5 Z"/></g>
<g><path style="opacity:0.004" fill="#fefffe" d="M 416.5,1273.5 C 416.897,1272.47 417.563,1272.31 418.5,1273C 417.906,1273.46 417.239,1273.63 416.5,1273.5 Z"/></g>
<g><path style="opacity:0.006" fill="#fefffe" d="M 423.5,1273.5 C 423.897,1272.47 424.563,1272.31 425.5,1273C 424.906,1273.46 424.239,1273.63 423.5,1273.5 Z"/></g>
<g><path style="opacity:0.004" fill="#fefffe" d="M 444.5,1273.5 C 444.897,1272.47 445.563,1272.31 446.5,1273C 445.906,1273.46 445.239,1273.63 444.5,1273.5 Z"/></g>
<g><path style="opacity:0.004" fill="#fefffe" d="M 448.5,1272.5 C 449.833,1273.17 449.833,1273.17 448.5,1272.5 Z"/></g>
<g><path style="opacity:0.004" fill="#fefffe" d="M 450.5,1272.5 C 451.833,1273.17 451.833,1273.17 450.5,1272.5 Z"/></g>
<g><path style="opacity:0.004" fill="#fefffe" d="M 460.5,1272.5 C 461.833,1273.17 461.833,1273.17 460.5,1272.5 Z"/></g>
<g><path style="opacity:0.004" fill="#fefffe" d="M 486.5,1273.5 C 486.897,1272.47 487.563,1272.31 488.5,1273C 487.906,1273.46 487.239,1273.63 486.5,1273.5 Z"/></g>
<g><path style="opacity:0.004" fill="#fefffe" d="M 489.5,1272.5 C 490.833,1273.17 490.833,1273.17 489.5,1272.5 Z"/></g>
<g><path style="opacity:0.004" fill="#fefffe" d="M 498.5,1273.5 C 498.897,1272.47 499.563,1272.31 500.5,1273C 499.906,1273.46 499.239,1273.63 498.5,1273.5 Z"/></g>
<g><path style="opacity:0.004" fill="#fefffe" d="M 503.5,1273.5 C 503.897,1272.47 504.563,1272.31 505.5,1273C 504.906,1273.46 504.239,1273.63 503.5,1273.5 Z"/></g>
<g><path style="opacity:0.004" fill="#fefffe" d="M 519.5,1272.5 C 520.833,1273.17 520.833,1273.17 519.5,1272.5 Z"/></g>
<g><path style="opacity:0.004" fill="#fefffe" d="M 532.5,1273.5 C 533.601,1272.4 534.934,1272.24 536.5,1273C 535.207,1273.49 533.873,1273.66 532.5,1273.5 Z"/></g>
<g><path style="opacity:0.004" fill="#fefffe" d="M 548.5,1272.5 C 549.833,1273.17 549.833,1273.17 548.5,1272.5 Z"/></g>
<g><path style="opacity:0.008" fill="#fefffe" d="M 559.5,1272.5 C 560.833,1273.17 560.833,1273.17 559.5,1272.5 Z"/></g>
<g><path style="opacity:0.004" fill="#fefffe" d="M 567.5,1272.5 C 568.833,1273.17 568.833,1273.17 567.5,1272.5 Z"/></g>
<g><path style="opacity:0.004" fill="#fefffe" d="M 6.5,1273.5 C 7.83333,1274.17 7.83333,1274.17 6.5,1273.5 Z"/></g>
<g><path style="opacity:0.004" fill="#fefffe" d="M 8.5,1273.5 C 9.83333,1274.17 9.83333,1274.17 8.5,1273.5 Z"/></g>
<g><path style="opacity:0.004" fill="#fefffe" d="M 13.5,1273.5 C 14.8333,1274.17 14.8333,1274.17 13.5,1273.5 Z"/></g>
<g><path style="opacity:0.004" fill="#fefffe" d="M 42.5,1273.5 C 43.8333,1274.17 43.8333,1274.17 42.5,1273.5 Z"/></g>
<g><path style="opacity:0.004" fill="#fefffe" d="M 47.5,1273.5 C 48.8333,1274.17 48.8333,1274.17 47.5,1273.5 Z"/></g>
<g><path style="opacity:0.004" fill="#fefffe" d="M 64.5,1273.5 C 65.8333,1274.17 65.8333,1274.17 64.5,1273.5 Z"/></g>
<g><path style="opacity:0.004" fill="#fefffe" d="M 76.5,1273.5 C 77.8333,1274.17 77.8333,1274.17 76.5,1273.5 Z"/></g>
<g><path style="opacity:0.004" fill="#fefffe" d="M 83.5,1273.5 C 84.8333,1274.17 84.8333,1274.17 83.5,1273.5 Z"/></g>
<g><path style="opacity:0.004" fill="#fefffe" d="M 100.5,1273.5 C 101.833,1274.17 101.833,1274.17 100.5,1273.5 Z"/></g>
<g><path style="opacity:0.004" fill="#fefffe" d="M 117.5,1273.5 C 118.833,1274.17 118.833,1274.17 117.5,1273.5 Z"/></g>
<g><path style="opacity:0.004" fill="#fefffe" d="M 280.5,1273.5 C 281.833,1274.17 281.833,1274.17 280.5,1273.5 Z"/></g>
<g><path style="opacity:0.004" fill="#fefffe" d="M 409.5,1273.5 C 410.833,1274.17 410.833,1274.17 409.5,1273.5 Z"/></g>
<g><path style="opacity:0.004" fill="#fefffe" d="M 570.5,1273.5 C 571.833,1274.17 571.833,1274.17 570.5,1273.5 Z"/></g>
</svg>
